<mxfile host="app.diagrams.net" modified="2022-03-17T08:44:02.497Z" agent="5.0 (Macintosh; Intel Mac OS X 10_15_7) AppleWebKit/605.1.15 (KHTML, like Gecko) Version/15.1 Safari/605.1.15" etag="khfoewG-wzVcGgeXC8lK" version="17.1.3" type="github">
  <diagram id="eVoFzGd_6-eP6rqzVpxb" name="Page-1">
    <mxGraphModel dx="1554" dy="913" grid="1" gridSize="10" guides="1" tooltips="1" connect="1" arrows="1" fold="1" page="1" pageScale="1" pageWidth="1169" pageHeight="1654" math="0" shadow="0">
      <root>
        <mxCell id="0" />
        <mxCell id="1" parent="0" />
        <mxCell id="9s_yw7YPVYF2wSnde_fv-2" value="" style="fontColor=#0066CC;verticalAlign=top;verticalLabelPosition=bottom;labelPosition=center;align=center;html=1;outlineConnect=0;fillColor=#CCCCCC;strokeColor=#6881B3;gradientColor=none;gradientDirection=north;strokeWidth=2;shape=mxgraph.networks.pc;labelBorderColor=none;" vertex="1" parent="1">
          <mxGeometry x="770" y="392.01" width="120" height="90" as="geometry" />
        </mxCell>
        <mxCell id="9s_yw7YPVYF2wSnde_fv-3" value="" style="points=[];aspect=fixed;html=1;align=center;shadow=0;dashed=0;image;image=img/lib/allied_telesis/storage/Datacenter_Server_Rack.svg;labelBorderColor=none;strokeColor=#000000;strokeWidth=1;fillColor=#FFFFFF;" vertex="1" parent="1">
          <mxGeometry x="361" y="337.6" width="88.2" height="178.8" as="geometry" />
        </mxCell>
        <mxCell id="9s_yw7YPVYF2wSnde_fv-4" value="&lt;font style=&quot;font-size: 15px&quot;&gt;Alice&lt;/font&gt;" style="text;html=1;align=center;verticalAlign=middle;resizable=0;points=[];autosize=1;strokeColor=none;fillColor=none;" vertex="1" parent="1">
          <mxGeometry x="805" y="352" width="50" height="20" as="geometry" />
        </mxCell>
        <mxCell id="9s_yw7YPVYF2wSnde_fv-5" value="&lt;font style=&quot;font-size: 15px&quot;&gt;Bob&lt;br&gt;&lt;/font&gt;" style="text;html=1;align=center;verticalAlign=middle;resizable=0;points=[];autosize=1;strokeColor=none;fillColor=none;" vertex="1" parent="1">
          <mxGeometry x="385.1" y="312" width="40" height="20" as="geometry" />
        </mxCell>
        <mxCell id="9s_yw7YPVYF2wSnde_fv-6" value="" style="endArrow=none;html=1;rounded=0;fontSize=15;strokeWidth=3;startArrow=none;" edge="1" parent="1" source="9s_yw7YPVYF2wSnde_fv-19">
          <mxGeometry width="50" height="50" relative="1" as="geometry">
            <mxPoint x="396" y="1112" as="sourcePoint" />
            <mxPoint x="400.0999999999999" y="516.3999999999999" as="targetPoint" />
          </mxGeometry>
        </mxCell>
        <mxCell id="9s_yw7YPVYF2wSnde_fv-7" value="" style="endArrow=none;html=1;rounded=0;fontSize=15;strokeWidth=3;startArrow=none;" edge="1" parent="1" source="9s_yw7YPVYF2wSnde_fv-21">
          <mxGeometry width="50" height="50" relative="1" as="geometry">
            <mxPoint x="840" y="1087.6" as="sourcePoint" />
            <mxPoint x="843.5649051094888" y="492" as="targetPoint" />
          </mxGeometry>
        </mxCell>
        <mxCell id="9s_yw7YPVYF2wSnde_fv-8" value="" style="points=[[0,0.5,0],[0.24,0,0],[0.5,0.28,0],[0.995,0.475,0],[0.5,0.72,0],[0.24,1,0]];verticalLabelPosition=bottom;sketch=0;html=1;verticalAlign=top;aspect=fixed;align=center;pointerEvents=1;shape=mxgraph.cisco19.key;fillColor=#FF9933;strokeColor=#36393d;labelBorderColor=none;fontSize=15;flipH=1;" vertex="1" parent="1">
          <mxGeometry x="900" y="377" width="68.33" height="30.75" as="geometry" />
        </mxCell>
        <mxCell id="9s_yw7YPVYF2wSnde_fv-9" value="" style="points=[[0,0.5,0],[0.24,0,0],[0.5,0.28,0],[0.995,0.475,0],[0.5,0.72,0],[0.24,1,0]];verticalLabelPosition=bottom;sketch=0;html=1;verticalAlign=top;aspect=fixed;align=center;pointerEvents=1;shape=mxgraph.cisco19.key;fillColor=#00CCCC;strokeColor=#000000;labelBorderColor=none;fontSize=15;flipH=1;fontColor=#ffffff;strokeWidth=1;" vertex="1" parent="1">
          <mxGeometry x="900" y="417" width="68.33" height="30.75" as="geometry" />
        </mxCell>
        <mxCell id="9s_yw7YPVYF2wSnde_fv-10" value="" style="sketch=0;aspect=fixed;pointerEvents=1;shadow=0;dashed=0;html=1;strokeColor=none;labelPosition=center;verticalLabelPosition=bottom;verticalAlign=top;align=center;fillColor=#FF0000;shape=mxgraph.mscae.enterprise.key_permissions;labelBorderColor=none;fontSize=15;flipV=1;rotation=90;" vertex="1" parent="1">
          <mxGeometry x="301" y="363.39" width="36" height="69.23" as="geometry" />
        </mxCell>
        <mxCell id="9s_yw7YPVYF2wSnde_fv-11" value="RSA pub" style="text;html=1;align=center;verticalAlign=middle;resizable=0;points=[];autosize=1;strokeColor=none;fillColor=none;fontSize=15;" vertex="1" parent="1">
          <mxGeometry x="968.3299999999999" y="382.75" width="80" height="20" as="geometry" />
        </mxCell>
        <mxCell id="9s_yw7YPVYF2wSnde_fv-12" value="RSA priv" style="text;html=1;align=center;verticalAlign=middle;resizable=0;points=[];autosize=1;strokeColor=none;fillColor=none;fontSize=15;" vertex="1" parent="1">
          <mxGeometry x="973.3299999999999" y="422.37" width="70" height="20" as="geometry" />
        </mxCell>
        <mxCell id="9s_yw7YPVYF2wSnde_fv-13" value="Symmetric &lt;br&gt;key" style="text;html=1;align=center;verticalAlign=middle;resizable=0;points=[];autosize=1;strokeColor=none;fillColor=none;fontSize=15;" vertex="1" parent="1">
          <mxGeometry x="190" y="378.01" width="90" height="40" as="geometry" />
        </mxCell>
        <mxCell id="9s_yw7YPVYF2wSnde_fv-14" value="" style="endArrow=classic;html=1;rounded=0;fontSize=15;strokeWidth=3;startArrow=none;entryX=1;entryY=0.5;entryDx=0;entryDy=0;" edge="1" parent="1" source="9s_yw7YPVYF2wSnde_fv-17" target="9s_yw7YPVYF2wSnde_fv-19">
          <mxGeometry width="50" height="50" relative="1" as="geometry">
            <mxPoint x="850" y="502" as="sourcePoint" />
            <mxPoint x="410" y="602" as="targetPoint" />
          </mxGeometry>
        </mxCell>
        <mxCell id="9s_yw7YPVYF2wSnde_fv-15" value="" style="endArrow=none;html=1;rounded=0;fontSize=15;strokeWidth=3;" edge="1" parent="1" target="9s_yw7YPVYF2wSnde_fv-16">
          <mxGeometry width="50" height="50" relative="1" as="geometry">
            <mxPoint x="839" y="502" as="sourcePoint" />
            <mxPoint x="399" y="602" as="targetPoint" />
          </mxGeometry>
        </mxCell>
        <mxCell id="9s_yw7YPVYF2wSnde_fv-16" value="" style="ellipse;whiteSpace=wrap;html=1;aspect=fixed;labelBorderColor=none;fontSize=15;strokeColor=#006EAF;strokeWidth=1;fillColor=#1ba1e2;fontColor=#ffffff;" vertex="1" parent="1">
          <mxGeometry x="835" y="492" width="15" height="15" as="geometry" />
        </mxCell>
        <mxCell id="9s_yw7YPVYF2wSnde_fv-17" value="" style="points=[[0,0.5,0],[0.24,0,0],[0.5,0.28,0],[0.995,0.475,0],[0.5,0.72,0],[0.24,1,0]];verticalLabelPosition=bottom;sketch=0;html=1;verticalAlign=top;aspect=fixed;align=center;pointerEvents=1;shape=mxgraph.cisco19.key;fillColor=#FF9933;strokeColor=#36393d;labelBorderColor=none;fontSize=15;flipH=1;" vertex="1" parent="1">
          <mxGeometry x="590" y="522" width="68.33" height="30.75" as="geometry" />
        </mxCell>
        <mxCell id="9s_yw7YPVYF2wSnde_fv-18" value="" style="endArrow=none;html=1;rounded=0;fontSize=15;strokeWidth=3;startArrow=none;" edge="1" parent="1" source="9s_yw7YPVYF2wSnde_fv-16" target="9s_yw7YPVYF2wSnde_fv-17">
          <mxGeometry width="50" height="50" relative="1" as="geometry">
            <mxPoint x="846.2422652629589" y="504.18783290068177" as="sourcePoint" />
            <mxPoint x="410" y="602" as="targetPoint" />
          </mxGeometry>
        </mxCell>
        <mxCell id="9s_yw7YPVYF2wSnde_fv-19" value="" style="ellipse;whiteSpace=wrap;html=1;aspect=fixed;labelBorderColor=none;fontSize=15;strokeColor=#A50040;strokeWidth=1;fillColor=#d80073;fontColor=#ffffff;" vertex="1" parent="1">
          <mxGeometry x="392.6" y="572" width="15" height="15" as="geometry" />
        </mxCell>
        <mxCell id="9s_yw7YPVYF2wSnde_fv-20" value="" style="endArrow=none;html=1;rounded=0;fontSize=15;strokeWidth=3;" edge="1" parent="1" target="9s_yw7YPVYF2wSnde_fv-19">
          <mxGeometry width="50" height="50" relative="1" as="geometry">
            <mxPoint x="400" y="822" as="sourcePoint" />
            <mxPoint x="399.564905109489" y="516.4000000000001" as="targetPoint" />
          </mxGeometry>
        </mxCell>
        <mxCell id="9s_yw7YPVYF2wSnde_fv-21" value="" style="ellipse;whiteSpace=wrap;html=1;aspect=fixed;labelBorderColor=none;fontSize=15;strokeColor=#006EAF;strokeWidth=1;fillColor=#1ba1e2;fontColor=#ffffff;" vertex="1" parent="1">
          <mxGeometry x="835" y="652" width="15" height="15" as="geometry" />
        </mxCell>
        <mxCell id="9s_yw7YPVYF2wSnde_fv-22" value="" style="endArrow=none;html=1;rounded=0;fontSize=15;strokeWidth=3;exitX=0.5;exitY=1;exitDx=0;exitDy=0;" edge="1" parent="1" source="9s_yw7YPVYF2wSnde_fv-28" target="9s_yw7YPVYF2wSnde_fv-21">
          <mxGeometry width="50" height="50" relative="1" as="geometry">
            <mxPoint x="840" y="1087.6" as="sourcePoint" />
            <mxPoint x="843.5649051094888" y="492" as="targetPoint" />
          </mxGeometry>
        </mxCell>
        <mxCell id="9s_yw7YPVYF2wSnde_fv-23" value="" style="endArrow=classic;html=1;rounded=0;fontSize=15;strokeWidth=3;startArrow=none;entryX=0;entryY=0;entryDx=0;entryDy=0;" edge="1" parent="1" source="9s_yw7YPVYF2wSnde_fv-24" target="9s_yw7YPVYF2wSnde_fv-21">
          <mxGeometry width="50" height="50" relative="1" as="geometry">
            <mxPoint x="430" y="732" as="sourcePoint" />
            <mxPoint x="750" y="702" as="targetPoint" />
          </mxGeometry>
        </mxCell>
        <mxCell id="9s_yw7YPVYF2wSnde_fv-24" value="" style="sketch=0;aspect=fixed;pointerEvents=1;shadow=0;dashed=0;html=1;strokeColor=none;labelPosition=center;verticalLabelPosition=bottom;verticalAlign=top;align=center;fillColor=#7EA6E0;shape=mxgraph.mscae.enterprise.key_permissions;labelBorderColor=none;fontSize=15;flipV=1;rotation=90;" vertex="1" parent="1">
          <mxGeometry x="607" y="582.77" width="36" height="69.23" as="geometry" />
        </mxCell>
        <mxCell id="9s_yw7YPVYF2wSnde_fv-25" value="" style="endArrow=none;html=1;rounded=0;fontSize=15;strokeWidth=3;exitX=1;exitY=1;exitDx=0;exitDy=0;" edge="1" parent="1" source="9s_yw7YPVYF2wSnde_fv-19" target="9s_yw7YPVYF2wSnde_fv-24">
          <mxGeometry width="50" height="50" relative="1" as="geometry">
            <mxPoint x="430" y="732" as="sourcePoint" />
            <mxPoint x="750" y="702" as="targetPoint" />
          </mxGeometry>
        </mxCell>
        <mxCell id="9s_yw7YPVYF2wSnde_fv-26" value="" style="ellipse;whiteSpace=wrap;html=1;aspect=fixed;labelBorderColor=none;fontSize=15;strokeColor=#A50040;strokeWidth=1;fillColor=#d80073;fontColor=#ffffff;" vertex="1" parent="1">
          <mxGeometry x="392.6" y="732" width="15" height="15" as="geometry" />
        </mxCell>
        <mxCell id="9s_yw7YPVYF2wSnde_fv-27" style="edgeStyle=none;rounded=0;orthogonalLoop=1;jettySize=auto;html=1;entryX=1;entryY=0.5;entryDx=0;entryDy=0;fontSize=15;strokeWidth=3;startArrow=none;" edge="1" parent="1" source="9s_yw7YPVYF2wSnde_fv-32" target="9s_yw7YPVYF2wSnde_fv-26">
          <mxGeometry relative="1" as="geometry" />
        </mxCell>
        <mxCell id="9s_yw7YPVYF2wSnde_fv-28" value="" style="ellipse;whiteSpace=wrap;html=1;aspect=fixed;labelBorderColor=none;fontSize=15;strokeColor=#006EAF;strokeWidth=1;fillColor=#1ba1e2;fontColor=#ffffff;" vertex="1" parent="1">
          <mxGeometry x="835" y="812" width="15" height="15" as="geometry" />
        </mxCell>
        <mxCell id="9s_yw7YPVYF2wSnde_fv-29" value="" style="sketch=0;aspect=fixed;pointerEvents=1;shadow=0;dashed=0;html=1;strokeColor=none;labelPosition=center;verticalLabelPosition=bottom;verticalAlign=top;align=center;fillColor=#FF0000;shape=mxgraph.mscae.enterprise.key_permissions;labelBorderColor=none;fontSize=15;flipV=1;rotation=90;" vertex="1" parent="1">
          <mxGeometry x="607.84" y="582.77" width="36" height="69.23" as="geometry" />
        </mxCell>
        <mxCell id="9s_yw7YPVYF2wSnde_fv-30" value="" style="sketch=0;pointerEvents=1;shadow=0;dashed=0;html=1;fillColor=none;labelPosition=center;verticalLabelPosition=bottom;verticalAlign=top;outlineConnect=0;align=center;shape=mxgraph.office.security.lock_protected;labelBorderColor=none;fontSize=15;strokeWidth=3;" vertex="1" parent="1">
          <mxGeometry x="600.0000000000001" y="582" width="50" height="70" as="geometry" />
        </mxCell>
        <mxCell id="9s_yw7YPVYF2wSnde_fv-31" style="edgeStyle=none;rounded=0;orthogonalLoop=1;jettySize=auto;html=1;entryX=0;entryY=0.5;entryDx=0;entryDy=0;fontSize=15;strokeWidth=3;startArrow=none;" edge="1" parent="1" source="9s_yw7YPVYF2wSnde_fv-34" target="9s_yw7YPVYF2wSnde_fv-28">
          <mxGeometry relative="1" as="geometry">
            <mxPoint x="650" y="942" as="sourcePoint" />
          </mxGeometry>
        </mxCell>
        <mxCell id="9s_yw7YPVYF2wSnde_fv-32" value="" style="sketch=0;outlineConnect=0;fontColor=#ffffff;fillColor=#d80073;strokeColor=#A50040;dashed=0;verticalLabelPosition=bottom;verticalAlign=top;align=center;html=1;fontSize=12;fontStyle=0;aspect=fixed;pointerEvents=1;shape=mxgraph.aws4.encrypted_data;labelBorderColor=none;" vertex="1" parent="1">
          <mxGeometry x="603.9" y="667" width="46.1" height="58" as="geometry" />
        </mxCell>
        <mxCell id="9s_yw7YPVYF2wSnde_fv-33" value="" style="edgeStyle=none;rounded=0;orthogonalLoop=1;jettySize=auto;html=1;exitX=0;exitY=1;exitDx=0;exitDy=0;entryX=1;entryY=0.5;entryDx=0;entryDy=0;fontSize=15;strokeWidth=3;endArrow=none;" edge="1" parent="1" source="9s_yw7YPVYF2wSnde_fv-21" target="9s_yw7YPVYF2wSnde_fv-32">
          <mxGeometry relative="1" as="geometry">
            <mxPoint x="848.1966991411009" y="824.8033008588991" as="sourcePoint" />
            <mxPoint x="412.5999999999999" y="899.5" as="targetPoint" />
          </mxGeometry>
        </mxCell>
        <mxCell id="9s_yw7YPVYF2wSnde_fv-34" value="" style="sketch=0;outlineConnect=0;fontColor=#ffffff;fillColor=#1ba1e2;strokeColor=#006EAF;dashed=0;verticalLabelPosition=bottom;verticalAlign=top;align=center;html=1;fontSize=12;fontStyle=0;aspect=fixed;pointerEvents=1;shape=mxgraph.aws4.encrypted_data;labelBorderColor=none;" vertex="1" parent="1">
          <mxGeometry x="600" y="747" width="46.1" height="58" as="geometry" />
        </mxCell>
        <mxCell id="9s_yw7YPVYF2wSnde_fv-35" value="" style="edgeStyle=none;rounded=0;orthogonalLoop=1;jettySize=auto;html=1;exitX=1;exitY=1;exitDx=0;exitDy=0;entryX=0;entryY=0.5;entryDx=0;entryDy=0;fontSize=15;strokeWidth=3;endArrow=none;" edge="1" parent="1" source="9s_yw7YPVYF2wSnde_fv-26" target="9s_yw7YPVYF2wSnde_fv-34">
          <mxGeometry relative="1" as="geometry">
            <mxPoint x="410.403300858899" y="904.8033008588991" as="sourcePoint" />
            <mxPoint x="846" y="959.5" as="targetPoint" />
          </mxGeometry>
        </mxCell>
        <mxCell id="9s_yw7YPVYF2wSnde_fv-36" value="" style="sketch=0;outlineConnect=0;fontColor=#ffffff;fillColor=#d80073;strokeColor=#A50040;dashed=0;verticalLabelPosition=bottom;verticalAlign=top;align=center;html=1;fontSize=12;fontStyle=0;aspect=fixed;pointerEvents=1;shape=mxgraph.aws4.encrypted_data;labelBorderColor=none;" vertex="1" parent="1">
          <mxGeometry x="911.1099999999999" y="458.14" width="46.1" height="58" as="geometry" />
        </mxCell>
        <mxCell id="9s_yw7YPVYF2wSnde_fv-37" value="Encrypted&lt;br&gt;filename" style="text;html=1;align=center;verticalAlign=middle;resizable=0;points=[];autosize=1;strokeColor=none;fillColor=none;fontSize=15;" vertex="1" parent="1">
          <mxGeometry x="963.3299999999999" y="468.13" width="80" height="40" as="geometry" />
        </mxCell>
        <mxCell id="9s_yw7YPVYF2wSnde_fv-38" value="" style="sketch=0;outlineConnect=0;fontColor=#ffffff;fillColor=#1ba1e2;strokeColor=#006EAF;dashed=0;verticalLabelPosition=bottom;verticalAlign=top;align=center;html=1;fontSize=12;fontStyle=0;aspect=fixed;pointerEvents=1;shape=mxgraph.aws4.encrypted_data;labelBorderColor=none;" vertex="1" parent="1">
          <mxGeometry x="295.94999999999993" y="432.62" width="46.1" height="58" as="geometry" />
        </mxCell>
        <mxCell id="9s_yw7YPVYF2wSnde_fv-39" value="Encrypted&amp;nbsp;&lt;br&gt;file" style="text;html=1;align=center;verticalAlign=middle;resizable=0;points=[];autosize=1;strokeColor=none;fillColor=none;fontSize=15;" vertex="1" parent="1">
          <mxGeometry x="205" y="441.62" width="90" height="40" as="geometry" />
        </mxCell>
      </root>
    </mxGraphModel>
  </diagram>
</mxfile>
